<svg width="253" height="38" viewBox="0 0 253 38" fill="none" xmlns="http://www.w3.org/2000/svg">
<path d="M207 32.759L215 36.5L229 12.8072L242 20.2892L229.5 26.1084L235.5 31.9277L252 22.7831L250 18.2108L231.5 7.81928L232.5 4.90964L224.5 2L207 32.759Z" fill="white" stroke="white"/>
<path d="M20.2 32L25 26.7368L11.1333 17.2632L23.9333 9.36842L18.6 2L1 12.5263V17.7895L20.2 32Z" fill="white" stroke="white"/>
<path d="M42.2739 21.055H50.3069C50.5196 21.055 50.7033 21.1323 50.8579 21.287C51.0126 21.4417 51.0899 21.6253 51.0899 21.838V26.217C51.0899 26.4297 51.0126 26.6133 50.8579 26.768C50.7033 26.9227 50.5196 27 50.3069 27H35.6909C35.4783 27 35.2946 26.9227 35.1399 26.768C34.9853 26.6133 34.9079 26.4297 34.9079 26.217V7.483C34.9079 7.27033 34.9853 7.08667 35.1399 6.932C35.2946 6.77733 35.4783 6.7 35.6909 6.7H41.4909C41.7036 6.7 41.8873 6.77733 42.0419 6.932C42.1966 7.08667 42.2739 7.27033 42.2739 7.483V21.055ZM53.1326 20.707V12.703C53.1326 12.4903 53.21 12.3067 53.3646 12.152C53.5193 11.9973 53.703 11.92 53.9156 11.92H59.4546C59.6673 11.92 59.851 11.9973 60.0056 12.152C60.1603 12.3067 60.2376 12.4903 60.2376 12.703V20.504C60.2376 21.5673 60.721 22.099 61.6876 22.099C62.6543 22.099 63.1376 21.5673 63.1376 20.504V12.703C63.1376 12.4903 63.215 12.3067 63.3696 12.152C63.5243 11.9973 63.708 11.92 63.9206 11.92H69.4306C69.6433 11.92 69.827 11.9973 69.9816 12.152C70.1363 12.3067 70.2136 12.4903 70.2136 12.703V26.217C70.2136 26.4297 70.1363 26.6133 69.9816 26.768C69.827 26.9227 69.6433 27 69.4306 27H64.3556C64.143 27 63.9593 26.9227 63.8046 26.768C63.65 26.6133 63.5726 26.4297 63.5726 26.217V25.26C62.664 26.6133 61.0593 27.29 58.7586 27.29C57.1733 27.29 55.8393 26.739 54.7566 25.637C53.674 24.5157 53.1326 22.8723 53.1326 20.707ZM79.0759 27H73.8849C73.6722 27 73.4885 26.9227 73.3339 26.768C73.1792 26.6133 73.1019 26.4297 73.1019 26.217V12.703C73.1019 12.4903 73.1792 12.3067 73.3339 12.152C73.4885 11.9973 73.6722 11.92 73.8849 11.92H79.0759C79.2885 11.92 79.4722 11.9973 79.6269 12.152C79.7815 12.3067 79.8589 12.4903 79.8589 12.703V26.217C79.8589 26.4297 79.7815 26.6133 79.6269 26.768C79.4722 26.9227 79.2885 27 79.0759 27ZM79.7139 6.323V9.832C79.7139 10.0447 79.6365 10.2283 79.4819 10.383C79.3272 10.5377 79.1435 10.615 78.9309 10.615H74.0299C73.8172 10.615 73.6335 10.5377 73.4789 10.383C73.3242 10.2283 73.2469 10.0447 73.2469 9.832V6.323C73.2469 6.11033 73.3242 5.92667 73.4789 5.772C73.6335 5.61733 73.8172 5.54 74.0299 5.54H78.9309C79.1435 5.54 79.3272 5.61733 79.4819 5.772C79.6365 5.92667 79.7139 6.11033 79.7139 6.323ZM90.7921 22.824C90.7921 22.6307 90.7437 22.476 90.6471 22.36C90.3957 22.0507 89.4677 21.751 87.8631 21.461C86.2584 21.1517 84.9534 20.62 83.9481 19.866C82.9621 19.0927 82.4691 18.0197 82.4691 16.647C82.4691 15.2743 83.1264 14.095 84.4411 13.109C85.7557 12.123 87.5247 11.63 89.7481 11.63C91.9907 11.63 93.8274 12.094 95.2581 13.022C96.6887 13.95 97.4041 14.8877 97.4041 15.835C97.4041 16.0477 97.3364 16.2313 97.2011 16.386C97.0851 16.5407 96.9401 16.618 96.7661 16.618H91.8941C91.6041 16.618 91.2464 16.4633 90.8211 16.154C90.3957 15.8447 90.0767 15.69 89.8641 15.69C89.4194 15.69 89.1971 15.8447 89.1971 16.154C89.1971 16.3473 89.2454 16.502 89.3421 16.618C89.5934 16.908 90.6471 17.1883 92.5031 17.459C94.3591 17.7297 95.7414 18.329 96.6501 19.257C97.5781 20.1657 98.0421 21.1807 98.0421 22.302C98.0421 23.868 97.3364 25.0957 95.9251 25.985C94.5137 26.8743 92.5127 27.319 89.9221 27.319C88.5494 27.319 87.3314 27.1643 86.2681 26.855C85.2047 26.5457 84.3927 26.159 83.8321 25.695C82.7301 24.7863 82.1791 23.9357 82.1791 23.143C82.1791 22.9303 82.2467 22.7467 82.3821 22.592C82.5174 22.4373 82.6817 22.36 82.8751 22.36H87.9211C88.1917 22.36 88.5397 22.5147 88.9651 22.824C89.4097 23.114 89.8254 23.259 90.2121 23.259C90.5987 23.259 90.7921 23.114 90.7921 22.824ZM116.067 14.414V19.286C116.067 20.852 116.783 21.635 118.213 21.635C119.315 21.635 120.04 21.113 120.388 20.069C120.485 19.7403 120.601 19.518 120.736 19.402C120.891 19.286 121.133 19.228 121.461 19.228H127.377C127.551 19.228 127.696 19.2957 127.812 19.431C127.948 19.547 128.015 19.692 128.015 19.866C128.015 21.548 127.532 22.9593 126.565 24.1C124.787 26.2267 122.012 27.29 118.242 27.29C115.284 27.29 112.926 26.6423 111.166 25.347C109.407 24.0323 108.527 22.0217 108.527 19.315V14.385C108.527 11.7363 109.426 9.745 111.224 8.411C113.022 7.077 115.362 6.41 118.242 6.41C122.012 6.41 124.787 7.47333 126.565 9.6C127.532 10.7407 128.015 12.152 128.015 13.834C128.015 14.008 127.948 14.1627 127.812 14.298C127.696 14.414 127.551 14.472 127.377 14.472H121.461C121.152 14.472 120.92 14.414 120.765 14.298C120.63 14.182 120.504 13.9597 120.388 13.631C120.021 12.587 119.296 12.065 118.213 12.065C116.783 12.065 116.067 12.848 116.067 14.414ZM129.902 22.679C129.902 20.069 132.019 18.3967 136.253 17.662L139.327 17.169C139.327 16.589 139.279 16.2023 139.182 16.009C139.086 15.7963 138.854 15.69 138.486 15.69C138.138 15.69 137.79 15.8447 137.442 16.154C137.094 16.4633 136.766 16.618 136.456 16.618H131.526C131.101 16.618 130.888 16.415 130.888 16.009C130.888 15.5837 131.033 15.139 131.323 14.675C131.633 14.1917 132.068 13.718 132.628 13.254C133.208 12.79 134.011 12.4033 135.035 12.094C136.079 11.7847 137.239 11.63 138.515 11.63C141.106 11.63 143.049 12.1713 144.344 13.254C145.64 14.3367 146.287 15.8833 146.287 17.894V26.217C146.287 26.4297 146.21 26.6133 146.055 26.768C145.901 26.9227 145.717 27 145.504 27H140.429C140.217 27 140.033 26.9227 139.878 26.768C139.724 26.6133 139.646 26.4297 139.646 26.217V25.405C138.738 26.6617 137.413 27.29 135.673 27.29C133.933 27.29 132.532 26.855 131.468 25.985C130.424 25.0957 129.902 23.9937 129.902 22.679ZM137.529 22.998C138.786 22.998 139.414 22.244 139.414 20.736L137.703 21.113C136.853 21.3063 136.427 21.664 136.427 22.186C136.427 22.418 136.524 22.6113 136.717 22.766C136.911 22.9207 137.181 22.998 137.529 22.998ZM155.38 12.703V13.718C156.733 12.5193 158.241 11.92 159.904 11.92H161.296C161.508 11.92 161.692 11.9973 161.847 12.152C162.001 12.3067 162.079 12.4903 162.079 12.703V17.227C162.079 17.4397 162.001 17.6233 161.847 17.778C161.692 17.9327 161.508 18.01 161.296 18.01H157.555C157.033 18.01 156.617 18.1357 156.308 18.387C156.018 18.619 155.853 18.938 155.815 19.344V26.217C155.815 26.4297 155.737 26.6133 155.583 26.768C155.428 26.9227 155.244 27 155.032 27H149.522C149.309 27 149.125 26.9227 148.971 26.768C148.816 26.6133 148.739 26.4297 148.739 26.217V12.703C148.739 12.4903 148.816 12.3067 148.971 12.152C149.125 11.9973 149.309 11.92 149.522 11.92H154.597C154.809 11.92 154.993 11.9973 155.148 12.152C155.302 12.3067 155.38 12.4903 155.38 12.703ZM170.381 27H165.19C164.977 27 164.793 26.9227 164.639 26.768C164.484 26.6133 164.407 26.4297 164.407 26.217V7.193C164.407 6.98033 164.484 6.79667 164.639 6.642C164.793 6.48733 164.977 6.41 165.19 6.41H170.381C170.593 6.41 170.777 6.48733 170.932 6.642C171.086 6.79667 171.164 6.98033 171.164 7.193V26.217C171.164 26.4297 171.086 26.6133 170.932 26.768C170.777 26.9227 170.593 27 170.381 27ZM173.629 20.446V18.474C173.629 16.27 174.412 14.5783 175.978 13.399C177.544 12.2197 179.564 11.63 182.039 11.63C184.513 11.63 186.534 12.2197 188.1 13.399C189.666 14.5783 190.449 16.27 190.449 18.474V20.446C190.449 22.6693 189.695 24.3707 188.187 25.55C186.679 26.71 184.629 27.29 182.039 27.29C179.448 27.29 177.399 26.71 175.891 25.55C174.383 24.3707 173.629 22.6693 173.629 20.446ZM183.344 20.678V18.242C183.344 17.5073 183.247 16.995 183.054 16.705C182.86 16.415 182.522 16.27 182.039 16.27C181.555 16.27 181.217 16.415 181.024 16.705C180.83 16.995 180.734 17.5073 180.734 18.242V20.678C180.734 21.4513 180.83 21.9733 181.024 22.244C181.217 22.5147 181.555 22.65 182.039 22.65C182.522 22.65 182.86 22.505 183.054 22.215C183.247 21.925 183.344 21.4127 183.344 20.678ZM200.958 22.824C200.958 22.6307 200.91 22.476 200.813 22.36C200.562 22.0507 199.634 21.751 198.029 21.461C196.424 21.1517 195.119 20.62 194.114 19.866C193.128 19.0927 192.635 18.0197 192.635 16.647C192.635 15.2743 193.292 14.095 194.607 13.109C195.922 12.123 197.691 11.63 199.914 11.63C202.157 11.63 203.993 12.094 205.424 13.022C206.855 13.95 207.57 14.8877 207.57 15.835C207.57 16.0477 207.502 16.2313 207.367 16.386C207.251 16.5407 207.106 16.618 206.932 16.618H202.06C201.77 16.618 201.412 16.4633 200.987 16.154C200.562 15.8447 200.243 15.69 200.03 15.69C199.585 15.69 199.363 15.8447 199.363 16.154C199.363 16.3473 199.411 16.502 199.508 16.618C199.759 16.908 200.813 17.1883 202.669 17.459C204.525 17.7297 205.907 18.329 206.816 19.257C207.744 20.1657 208.208 21.1807 208.208 22.302C208.208 23.868 207.502 25.0957 206.091 25.985C204.68 26.8743 202.679 27.319 200.088 27.319C198.715 27.319 197.497 27.1643 196.434 26.855C195.371 26.5457 194.559 26.159 193.998 25.695C192.896 24.7863 192.345 23.9357 192.345 23.143C192.345 22.9303 192.413 22.7467 192.548 22.592C192.683 22.4373 192.848 22.36 193.041 22.36H198.087C198.358 22.36 198.706 22.5147 199.131 22.824C199.576 23.114 199.991 23.259 200.378 23.259C200.765 23.259 200.958 23.114 200.958 22.824Z" fill="white"/>
</svg>
